<?xml version="1.0" encoding="UTF-8"?>
<svg width="253px" height="134px" viewBox="0 0 253 134" version="1.1" xmlns="http://www.w3.org/2000/svg" xmlns:xlink="http://www.w3.org/1999/xlink">
    <!-- Generator: Sketch 46.2 (44496) - http://www.bohemiancoding.com/sketch -->
    <title>Group Copy 3</title>
    <desc>Created with Sketch.</desc>
    <defs></defs>
    <g id="Page-1" stroke="none" stroke-width="1" fill="none" fill-rule="evenodd">
        <g id="iMac-Pro-27-inch" transform="translate(-1218.000000, -738.000000)">
            <g id="iMac-Pro-Space-Grey" transform="translate(572.000000, 204.000000)">
                <g id="Screen" transform="translate(336.000000, 336.000000)">
                    <g id="Group" transform="translate(12.000000, 12.000000)">
                        <g transform="translate(-7.000000, -401.000000)" id="Group-6">
                            <g transform="translate(0.000000, 301.920000)">
                                <g id="Group-Copy-3" transform="translate(305.270000, 285.330000)">
                                    <path d="M66.6,133.2 C29.8178357,133.2 0,103.382164 0,66.6 C0,29.8178357 29.8178357,0 66.6,0 C103.382164,0 133.2,29.8178357 133.2,66.6 C133.2,103.382164 103.382164,133.2 66.6,133.2 Z M66.2894431,10.4424802 C61.956146,10.5899943 58.2540533,13.3174022 55.1831649,18.6247036 L19.4157763,83.6493154 C16.4540038,89.8117655 16.0041768,94.4259069 18.0662953,97.4917397 C20.1284138,100.557573 24.7178679,102.097978 31.8346575,102.112955 L99.4448605,102.112955 C107.328849,102.357246 112.433135,100.816841 114.757717,97.4917397 C117.082299,94.1666389 116.647605,89.3560225 113.453636,83.0598905 L77.5284132,17.7483384 C74.3690636,12.7302521 70.6227402,10.294966 66.2894431,10.4424802 Z M85.0446053,45.5298827 C86.8357219,46.9317897 87.520038,49.1736911 87.0975536,52.2555869 L79.5113877,90.6156066 C78.6718586,94.2227702 77.2244052,96.3025388 75.1690274,96.8549122 C73.1136496,97.4072856 70.5430218,96.3051473 67.4571439,93.5484973 L40.287369,70.7503493 C37.4324728,68.3445502 36.1075833,66.1779613 36.3127005,64.2505826 C36.5178176,62.3232038 38.2544724,60.6206507 41.5226646,59.1429232 L77.8224022,45.0729486 C80.8460877,43.9756642 83.2534887,44.1279756 85.0446053,45.5298827 Z" id="Oval-2" fill="#000000"></path>
                                    <path d="M209.590641,60.8195594 C199.373344,64.177624 192.569312,67.2704394 184.669445,70.4111598 C170.982763,75.8525219 163.100089,85.2952784 163.100089,95.281102 C163.100089,103.322783 163.885852,109.749082 169.216616,113.548998 C172.681612,116.023361 179.638164,117.563157 183.895835,117.267805 C190.736637,116.793264 196.152714,113.306081 201.527901,110.036386 C206.903088,106.766692 209.590641,102.597879 209.590641,97.5607821 L209.590641,60.8195594 Z M138.75,103.524967 C138.75,90.7112993 140.916171,80.988585 153.79885,72.4166833 C161.972687,67.1144761 185.157974,60.3480919 209.590641,51.2459696 C209.606006,46.4498015 209.48042,42.0192149 209.213883,37.9542097 C208.814078,31.8567019 208.079688,27.6078484 204.418549,22.4368081 C201.863397,18.8278784 198.060583,12.9541529 188.554055,12.9541529 C184.022905,12.9541529 180.811515,13.2710596 176.126906,14.8488399 C171.442296,16.4266203 169.077039,19.0597819 169.077039,23.2131776 C169.077039,24.273619 169.299151,26.0630871 169.743381,28.5816355 C170.187612,31.1001839 170.409723,32.7129144 170.409723,33.4198754 C170.409723,38.3686021 168.766096,41.8149851 165.478792,43.7591277 C163.613024,44.9079393 160.625843,46.3150021 158.049307,46.3150021 C154.051234,46.3150021 150.555522,45.3541531 148.423216,42.7472346 C146.290911,40.140316 144.418111,36.6011997 144.418111,33.4198754 C144.418111,27.233967 146.113665,21.6091541 153.79885,14.8488399 C161.484034,8.08852577 176.895379,3.33 191.732672,3.33 C208.968807,3.33 220.651889,8.89723405 226.782268,20.0318692 C230.069572,26.1294074 231.713199,35.0104713 231.713199,46.6753271 L231.713199,99.8296885 C231.713199,104.955155 232.068578,108.489907 232.779347,110.43405 C233.934345,113.880485 237.062848,117.847644 240.705537,117.847644 C242.748996,117.847644 244.421115,117.847644 246.275178,117.847644 C248.129241,117.847644 249.492703,117.847644 251.97,117.847644 L251.97,124.749938 C247.229941,126.626487 247.390834,126.609035 243.18061,127.954686 C237.601691,129.737793 232.73495,130.582336 227.581878,130.582336 C221.540346,130.582336 217.164743,128.638223 214.454938,124.749938 C211.745133,120.861652 210.256984,116.222291 209.990446,110.831713 C204.386525,117.061776 198.767158,121.922094 193.96947,124.749938 C185.884479,129.521924 176.89549,130.98 169.610113,130.98 C161.969352,130.98 155.217151,129.168448 149.619849,123.822056 C144.022547,118.475664 138.75,111.743388 138.75,103.524967 Z" id="a" fill="#072CB0"></path>
                                </g>
                            </g>
                        </g>
                    </g>
                </g>
            </g>
        </g>
    </g>
</svg>